PathFileType	4	(X/Y/Z)	s08c0402.trc
DataRate	CameraRate	NumFrames	NumMarkers	Units	OrigDataRate	OrigDataStartFrame	OrigNumFrames
200	200	4	50	mm	200	250	2000
Frame#	Time	racr			lacr			c7			jug			rlel			rdr			llel			ldr			s2			lic			ric			lasi			rasi			rpsi			lpsi			rgt			lgt			rth1			rth2			rth3			rth4			rlfc			rmfc			rsh1			rsh2			rsh3			rsh4			rlmal			rmmal			rcal			rtoe			rmt5			lth1			lth2			lth4			lth3			llfc			lmfc			llmal			lmmal			lcal			lmt5			lsh1			lsh2			lsh3			lsh4			ltoe			SBIKE			LBIKE			RBIKE			
		X1	Y1	Z1	X2	Y2	Z2	X3	Y3	Z3	X4	Y4	Z4	X5	Y5	Z5	X6	Y6	Z6	X7	Y7	Z7	X8	Y8	Z8	X9	Y9	Z9	X10	Y10	Z10	X11	Y11	Z11	X12	Y12	Z12	X13	Y13	Z13	X14	Y14	Z14	X15	Y15	Z15	X16	Y16	Z16	X17	Y17	Z17	X18	Y18	Z18	X19	Y19	Z19	X20	Y20	Z20	X21	Y21	Z21	X22	Y22	Z22	X23	Y23	Z23	X24	Y24	Z24	X25	Y25	Z25	X26	Y26	Z26	X27	Y27	Z27	X28	Y28	Z28	X29	Y29	Z29	X30	Y30	Z30	X31	Y31	Z31	X32	Y32	Z32	X33	Y33	Z33	X34	Y34	Z34	X35	Y35	Z35	X36	Y36	Z36	X37	Y37	Z37	X38	Y38	Z38	X39	Y39	Z39	X40	Y40	Z40	X41	Y41	Z41	X42	Y42	Z42	X43	Y43	Z43	X44	Y44	Z44	X45	Y45	Z45	X46	Y46	Z46	X47	Y47	Z47	X48	Y48	Z48	X49	Y49	Z49	X50	Y50	Z50	
250	1.2500	507.335875	1392.406986	-55.619039	517.578993	1400.724658	-416.065587	497.739969	1467.498894	-238.514161	479.039340	1313.184110	-233.186144	558.307672	1136.691055	7.100818	783.987240	936.853332	-65.480969	582.505679	1145.235152	-495.533009	781.329615	931.046153	-438.036035	-33.168109	1198.415700	-252.081934	142.899360	1175.580922	-389.486786	124.925373	1210.512413	-87.720045	161.252821	1121.999042	-356.337175	148.932311	1154.224179	-117.607232	-6.991896	1243.015476	-202.007347	3.066278	1238.113549	-297.430101	48.693133	1111.912028	-42.104110	65.675763	1060.722193	-422.704813	191.865447	1016.698286	-35.204432	277.964561	995.559362	-35.374043	340.606061	935.091322	-40.619497	295.088122	1026.536174	-48.165887	437.982519	862.510720	-59.433830	423.178716	851.300049	-171.257669	379.521085	745.239642	-31.388752	379.800622	656.785496	-50.291340	335.643106	582.655359	-57.260417	406.715446	654.544791	-81.423972	296.048288	471.230546	-69.044468	310.860881	495.300032	-155.632903	218.429002	433.041767	-111.930517	514.685083	457.348040	-110.683958	431.214592	416.143036	-43.561214	128.623884	938.529970	-431.175112	190.914517	877.031691	-430.898948	221.826345	894.744374	-421.008680	213.502299	791.030404	-430.305790	254.965514	667.603861	-404.767533	248.886215	646.366966	-297.942611	22.963926	319.856491	-396.508427	47.612152	337.038136	-312.219620	-52.056220	303.424444	-357.425948	145.946753	222.778205	-419.735092	186.902044	558.544923	-427.038050	156.321325	480.899959	-406.243873	91.928815	420.773064	-408.940770	174.417600	473.934298	-372.165359	230.861254	243.301686	-351.500046	-146.700515	938.335100	-227.669053	10.605777	79.976965	-426.997012	10.668008	79.939446	-28.451023	
251	1.2550	507.127534	1392.416761	-55.605583	517.452750	1400.684143	-416.114280	497.490254	1467.568715	-238.514493	478.837801	1313.211143	-233.105438	558.383001	1136.772389	7.079395	784.004056	936.861831	-65.510605	582.470344	1145.228300	-495.459613	781.311738	931.023209	-437.941696	-33.466433	1198.467091	-252.006982	142.569236	1175.667833	-389.374596	124.709798	1210.502185	-87.679965	160.930621	1122.045056	-356.375329	148.667059	1154.281049	-117.596244	-7.270308	1243.053754	-201.975213	2.819048	1238.182675	-297.414064	48.450957	1111.936443	-42.079017	65.298217	1060.809494	-422.690201	191.659950	1016.762084	-35.190321	277.737407	995.646247	-35.339499	340.365033	935.249646	-40.588380	295.087326	1026.626206	-47.884175	437.780809	862.653526	-59.391697	422.969578	851.444524	-171.188462	379.297269	745.420258	-31.356178	379.547370	656.920373	-50.279964	335.393930	582.830068	-57.232816	406.366592	654.668382	-81.480714	295.706856	471.423537	-69.016578	310.546744	495.464395	-155.630278	218.125685	433.196825	-111.965078	514.385736	457.809978	-110.712689	430.959990	416.522406	-43.554331	128.149408	938.515720	-431.159329	190.412582	876.936182	-430.822824	221.291866	894.608940	-420.877109	212.832695	790.907952	-430.194860	254.179030	667.367474	-404.586098	247.917455	646.172406	-298.246758	22.826344	319.198790	-396.519545	47.295814	336.516790	-312.158627	-52.168856	302.546710	-357.418384	146.061133	222.502692	-419.722692	186.257458	558.258239	-426.994574	155.876268	480.567239	-406.211273	91.583733	420.295850	-408.904335	173.966433	473.645257	-372.141319	230.947391	243.249891	-351.483565	-146.699862	938.320836	-227.673428	10.602401	79.980404	-426.972201	10.669642	79.940614	-28.456416	
252	1.2600	506.951691	1392.429886	-55.611610	517.287225	1400.602640	-416.060268	497.256677	1467.631599	-238.537690	478.622075	1313.244832	-233.055743	558.948609	1137.071230	7.593175	784.030881	936.876779	-65.529949	582.442007	1145.225783	-495.342428	781.280223	930.964116	-437.824116	-33.825895	1198.511578	-251.939036	142.233479	1175.757627	-389.317216	124.480503	1210.542395	-87.637398	160.599842	1122.095958	-356.375500	148.388557	1154.302868	-117.586925	-7.669033	1243.277102	-201.791876	2.494356	1238.242379	-297.362873	48.205648	1111.989357	-42.073116	64.900173	1060.843576	-422.662713	191.412796	1016.853926	-35.191886	277.480123	995.688229	-35.396793	340.157498	935.368383	-40.573539	294.839950	1026.721904	-47.847207	437.558236	862.847055	-59.349368	422.739858	851.587796	-171.142444	379.096617	745.622735	-31.310051	379.244940	657.128769	-50.396445	335.004624	583.138109	-57.170613	406.126634	654.941781	-81.478376	295.451952	471.619926	-69.009520	310.142625	495.800910	-155.905502	217.836402	433.360138	-111.988711	514.115026	458.189806	-110.708926	430.744758	416.921589	-43.568596	127.683020	938.516997	-431.172287	189.892282	876.856174	-430.728153	220.788885	894.441149	-420.765158	212.231836	790.780613	-430.071907	253.409407	667.173334	-404.459858	247.063017	645.935495	-298.181517	22.671271	318.565179	-396.482606	47.100852	335.900576	-312.152719	-52.315787	301.705539	-357.419914	146.179773	222.227893	-419.721394	185.667804	558.005514	-426.936066	155.386847	480.274837	-406.209511	91.216871	419.821762	-408.875942	173.516883	473.338722	-372.133619	230.959726	243.257173	-351.489409	-146.720455	938.315703	-227.692810	10.602750	79.987225	-426.981492	10.664703	79.905739	-28.465117	
253	1.2650	506.756672	1392.466814	-55.642687	517.103990	1400.523294	-416.010270	497.000197	1467.699904	-238.580744	478.424256	1313.272491	-233.035912	559.017574	1137.161458	7.595073	784.022105	936.897245	-65.515473	582.424970	1145.218373	-495.238641	781.243369	930.910622	-437.770689	-34.097605	1198.538597	-251.934763	141.918034	1175.853646	-389.409913	124.277001	1210.545926	-87.600810	160.241288	1122.136182	-356.356550	148.115984	1154.345207	-117.513978	-7.965510	1243.362178	-201.792633	2.234734	1238.283500	-297.339629	47.937512	1112.018294	-42.034937	64.542534	1060.905582	-422.625769	191.157380	1016.928159	-35.177977	277.252303	995.811786	-35.388278	339.965055	935.464333	-40.573233	294.588653	1026.834181	-47.825053	437.325991	863.043932	-59.364103	422.505572	851.753550	-171.094201	378.920632	745.856520	-31.282932	379.069090	657.354927	-50.375441	334.799847	583.373221	-57.201417	405.900393	655.152650	-81.472937	295.234401	471.869310	-69.025736	309.907662	496.026440	-155.889347	217.616921	433.556911	-112.020423	513.891559	458.442221	-110.717944	430.515313	417.200561	-43.586296	127.273031	938.505624	-431.193135	189.358182	876.792553	-430.661634	220.261643	894.318387	-420.642232	211.609399	790.641530	-429.951450	252.645017	667.049585	-404.362968	246.227952	645.758011	-298.049617	22.468420	317.921980	-396.446168	47.049673	335.310782	-312.172552	-52.470551	300.910683	-357.422552	146.252642	221.986668	-419.725967	185.116501	557.718841	-426.910165	154.887985	479.973061	-406.176999	90.828292	419.403549	-408.844691	173.014864	473.050288	-372.109819	230.975072	243.283070	-351.473510	-146.722388	938.300440	-227.693283	10.613904	79.970444	-426.991262	10.661666	79.939869	-28.456890	
